<svg xmlns="http://www.w3.org/2000/svg" xmlns:xlink="http://www.w3.org/1999/xlink" version="1.1" id="Layer_1" x="0px" y="0px" viewBox="0 0 178 62.2" style="enable-background:new 0 0 178 62.2;" height="45px">
<style type="text/css">
	.st0{fill:#FFFFFF;}
	.st1{fill-rule:evenodd;clip-rule:evenodd;fill:#EA1D25;}
</style>
<rect x="0.5" y="0.5" class="st0" width="177" height="61.2"/>
<g>
	<polygon class="st1" points="12.2,12.7 12.2,22.1 25.3,22.1 25.3,49.5 34.3,49.5 34.3,22.1 47.4,22.1 47.4,12.7  "/>
	<path class="st1" d="M78,26.5H60.7v-4.4H78V26.5z M51.8,12.7v36.7H87V12.7H51.8z M78,40.2H60.7v-4.4H78V40.2z"/>
	<path class="st1" d="M117.4,40.2h-17.3V22.1h17.3L117.4,40.2L117.4,40.2z M91.2,12.7v36.7h35.2V12.7H91.2z"/>
	<polygon class="st1" points="130.6,12.7 130.6,49.5 165.8,49.5 165.8,40.2 139.5,40.2 139.5,35.8 165.8,35.8 165.8,26.5    139.5,26.5 139.5,22.1 165.8,22.1 165.8,12.7  "/>
</g>
</svg>